<svg width="16" height="16" viewBox="0 0 16 16" fill="current" xmlns="http://www.w3.org/2000/svg">
    <path fill-rule="evenodd" clip-rule="evenodd"
        d="M8.00025 8.91924L11.9602 4.95924C12.1489 4.77717 12.4016 4.67649 12.6638 4.67889C12.926 4.6813 13.1767 4.78658 13.3621 4.97208C13.5474 5.15758 13.6524 5.40844 13.6546 5.67064C13.6567 5.93284 13.5558 6.18539 13.3736 6.37391L8.70691 11.0406C8.51941 11.2278 8.26525 11.333 8.00025 11.333C7.73524 11.333 7.48108 11.2278 7.29358 11.0406L2.62691 6.37391C2.53136 6.28171 2.45513 6.1714 2.40266 6.04942C2.35019 5.92744 2.32255 5.79623 2.32133 5.66345C2.32012 5.53068 2.34535 5.39899 2.39558 5.27607C2.4458 5.15315 2.52 5.04146 2.61385 4.94752C2.7077 4.85359 2.81931 4.77928 2.94219 4.72894C3.06506 4.6786 3.19672 4.65324 3.3295 4.65433C3.46228 4.65542 3.59352 4.68295 3.71554 4.7353C3.83757 4.78765 3.94795 4.86378 4.04025 4.95924L8.00025 8.91991V8.91924Z"
        fill="current" />
</svg>
    