<svg width="20" height="20" viewBox="0 0 20 20" fill="none" xmlns="http://www.w3.org/2000/svg">
<path fill-rule="evenodd" clip-rule="evenodd" d="M9.11668 3.28324C9.35364 3.06244 9.66705 2.94223 9.99089 2.94795C10.3147 2.95366 10.6237 3.08485 10.8527 3.31387C11.0817 3.54289 11.2129 3.85187 11.2186 4.1757C11.2244 4.49954 11.1041 4.81295 10.8833 5.04991L7.18501 8.74991H15.8333C16.144 8.7499 16.4434 8.86554 16.6734 9.07428C16.9034 9.28302 17.0475 9.56992 17.0775 9.87907L17.0833 9.99991C17.0833 10.3314 16.9517 10.6494 16.7172 10.8838C16.4828 11.1182 16.1649 11.2499 15.8333 11.2499H7.18418L10.8842 14.9499C11.1029 15.1687 11.2327 15.4607 11.2486 15.7697C11.2644 16.0786 11.1652 16.3824 10.97 16.6224L10.8842 16.7174C10.7681 16.8336 10.6303 16.9257 10.4786 16.9886C10.3268 17.0514 10.1642 17.0838 10 17.0838C9.83579 17.0838 9.67318 17.0514 9.52148 16.9886C9.36977 16.9257 9.23193 16.8336 9.11585 16.7174L3.28252 10.8841C3.25914 10.8596 3.23636 10.8346 3.21418 10.8091C3.16477 10.7525 3.12121 10.6911 3.08418 10.6257C2.95834 10.4089 2.90081 10.1591 2.91909 9.90909C2.93738 9.65904 3.03063 9.42031 3.18668 9.22407C3.21658 9.1862 3.24857 9.15003 3.28252 9.11574L3.21418 9.19074C3.23085 9.17074 3.24835 9.15157 3.26668 9.13241L3.28335 9.11574L9.11668 3.28241V3.28324Z" fill="#343538"/>
</svg>
