<svg width="24" height="24" viewBox="0 0 24 24" fill="current" xmlns="http://www.w3.org/2000/svg">
    <path
        d="M18.59 5H4.91C4.13753 5.00199 3.39738 5.31024 2.85186 5.85716C2.30635 6.40409 2 7.14503 2 7.9175V16.3325C2 17.105 2.30635 17.8459 2.85186 18.3928C3.39738 18.9398 4.13753 19.248 4.91 19.25H18.59C19.3625 19.248 20.1026 18.9398 20.6481 18.3928C21.1937 17.8459 21.5 17.105 21.5 16.3325V7.9175C21.5 7.14503 21.1937 6.40409 20.6481 5.85716C20.1026 5.31024 19.3625 5.00199 18.59 5ZM4.91 6.5H18.59C18.9646 6.50198 19.3233 6.6522 19.5875 6.91782C19.8517 7.18344 20 7.54285 20 7.9175V8.75H3.5V7.9175C3.49999 7.54285 3.64831 7.18344 3.91252 6.91782C4.17673 6.6522 4.53536 6.50198 4.91 6.5ZM18.59 17.75H4.91C4.53536 17.748 4.17673 17.5978 3.91252 17.3322C3.64831 17.0666 3.49999 16.7071 3.5 16.3325V10.25H20V16.3325C20 16.7071 19.8517 17.0666 19.5875 17.3322C19.3233 17.5978 18.9646 17.748 18.59 17.75Z"
        fill="current" />
</svg>
    