<svg width="25" height="25" viewBox="0 0 25 25" fill="current" xmlns="http://www.w3.org/2000/svg">
    <path fill-rule="evenodd" clip-rule="evenodd"
        d="M2 9.20833C2 6.33185 4.33185 4 7.20833 4H17.625C20.5015 4 22.8333 6.33185 22.8333 9.20833V15.4583C22.8333 18.3348 20.5015 20.6667 17.625 20.6667H7.20833C4.33185 20.6667 2 18.3348 2 15.4583V9.20833ZM7.20833 6.83325C5.84769 6.83325 5.42899 6.95293 5 8.16667H20C19.571 6.95293 18.9856 6.83325 17.625 6.83325H7.20833ZM20 12.3333H5V15.4583C5 17.1843 5.48245 17.8333 7.20833 17.8333H17.625C19.3509 17.8333 20 17.1843 20 15.4583V12.3333Z"
        fill="current" />
</svg>
    