<svg width="20" height="20" viewBox="0 0 20 20" fill="current" xmlns="http://www.w3.org/2000/svg">
    <path fill-rule="evenodd" clip-rule="evenodd"
        d="M7.49994 12.8161L4.2166 9.53274C3.98074 9.30515 3.66493 9.1793 3.33719 9.1823C3.00944 9.18531 2.69598 9.31692 2.46433 9.54879C2.23268 9.78066 2.10137 10.0942 2.09868 10.422C2.09598 10.7497 2.22213 11.0654 2.44994 11.3011L6.6166 15.4677C6.85098 15.7018 7.16869 15.8333 7.49994 15.8333C7.83119 15.8333 8.1489 15.7018 8.38327 15.4677L17.5483 6.30107C17.7828 6.06658 17.9145 5.74853 17.9145 5.4169C17.9145 5.08528 17.7828 4.76723 17.5483 4.53274C17.3138 4.29824 16.9957 4.1665 16.6641 4.1665C16.3325 4.1665 16.0144 4.29824 15.7799 4.53274L7.49994 12.8169V12.8161Z"
        fill="current" />
</svg>
    