<svg width="20" height="20" viewBox="0 0 20 20" fill="none" xmlns="http://www.w3.org/2000/svg">
<path fill-rule="evenodd" clip-rule="evenodd" d="M15.8834 4.11675C16.1175 4.35112 16.249 4.66883 16.249 5.00008C16.249 5.33133 16.1175 5.64904 15.8834 5.88341L11.7684 10.0001L15.8851 14.1167C16.1038 14.3355 16.2336 14.6276 16.2495 14.9365C16.2653 15.2454 16.1661 15.5493 15.9709 15.7892L15.8851 15.8842C15.769 16.0004 15.6312 16.0925 15.4794 16.1554C15.3277 16.2183 15.1651 16.2506 15.0009 16.2506C14.8367 16.2506 14.6741 16.2183 14.5224 16.1554C14.3707 16.0925 14.2328 16.0004 14.1167 15.8842L10.0001 11.7667L5.88341 15.8834C5.64755 16.111 5.33174 16.2368 5.00399 16.2338C4.67624 16.2308 4.36279 16.0992 4.13114 15.8674C3.89948 15.6355 3.76817 15.3219 3.76548 14.9942C3.76279 14.6664 3.88893 14.3507 4.11674 14.1151L8.23174 10.0001L4.11507 5.88341C3.89636 5.66466 3.76652 5.37259 3.75067 5.06366C3.73481 4.75473 3.83407 4.4509 4.02924 4.21091L4.11507 4.11591C4.23116 3.99975 4.36899 3.90761 4.5207 3.84474C4.67241 3.78187 4.83502 3.74951 4.99924 3.74951C5.16346 3.74951 5.32607 3.78187 5.47778 3.84474C5.62949 3.90761 5.76732 3.99975 5.88341 4.11591L10.0001 8.23341L14.1167 4.11675C14.3511 3.88266 14.6688 3.75118 15.0001 3.75118C15.3313 3.75118 15.649 3.88266 15.8834 4.11675V4.11675Z" fill="#343538"/>
</svg>