<svg width="24" height="24" viewBox="0 0 24 24" fill="current" xmlns="http://www.w3.org/2000/svg">
    <path d="M6.55636 12.0784C6.69312 12.2163 6.7701 12.4043 6.7701 12.6005V13.2995C6.7701 14.1797 6.91506 15.0537 7.19893 15.8849C7.74126 17.4728 9.09465 18.6284 10.7221 18.8931L10.7659 18.9003C11.5835 19.0332 12.4165 19.0332 13.2341 18.9003L13.2779 18.8931C14.9054 18.6284 16.2587 17.4728 16.8011 15.8849C17.0849 15.0537 17.2299 14.1797 17.2299 13.2995V12.6005C17.2299 12.4043 17.3069 12.2163 17.4436 12.0784L17.9524 11.5655C19.9125 9.58921 18.9854 6.18484 16.3069 5.52387C13.4764 4.82538 10.5236 4.82538 7.69307 5.52387C5.01464 6.18484 4.08747 9.58921 6.04763 11.5655L6.55636 12.0784Z" fill="#363853" />
</svg>
    