<svg width="120" height="120" viewBox="0 0 120 120" fill="none" xmlns="http://www.w3.org/2000/svg">
    <g clip-path="url(#clip0_405_1354)">
        <path d="M32.9528 110.142C51.1515 110.142 65.9055 105.684 65.9055 100.185C65.9055 94.6855 51.1515 90.2275 32.9528 90.2275C14.7525 90.2275 0 94.6855 0 100.185C0 105.684 14.7532 110.142 32.9528 110.142ZM100.608 107.866C107.935 107.866 113.876 106.083 113.876 103.883C113.876 101.683 107.935 99.9 100.608 99.9C93.2797 99.9 87.339 101.683 87.339 103.883C87.339 106.083 93.2797 107.866 100.608 107.866Z" fill="#CBCBCB" />
        <path d="M8.31128 22.8022C8.45678 23.087 4.08278 46.558 0.583284 65.3341C-1.89547 78.8486 4.95728 92.3617 17.4965 98.7624C31.7863 105.875 49.4285 101.75 58.7608 89.0899L63.7183 82.2617L8.31128 22.8022V22.8022Z" fill="#0F462D" />
        <path d="M9.6225 18.8189C7.728 22.8022 7.29 27.3544 6.999 31.6218C6.26925 40.0145 5.54025 48.5493 5.832 57.0841C5.97825 64.0544 4.9575 71.024 7.8735 77.7102C10.3523 83.5421 14.289 88.2363 19.83 91.508C36.1605 101.038 63.2805 96.3442 65.6138 75.0073C66.78 65.05 62.9888 54.5232 56.865 46.558C50.304 38.0225 45.6375 27.9232 40.8263 18.5348C37.9103 12.987 33.6818 8.57757 26.6828 10.2848C25.6628 10.5689 24.7875 11.2805 23.7668 11.5645C22.8915 11.8493 21.7253 11.4225 20.7045 11.4225C15.747 11.2805 11.6648 14.6942 9.62326 18.8196L9.6225 18.8189Z" fill="#06C167" />
        <path d="M38.0557 93.2144C32.0782 93.2144 26.1 91.6499 21.4335 88.947C16.6222 86.1021 13.1227 82.1195 10.7895 76.5717C8.74872 72.0195 8.74872 67.1833 8.89422 61.9202V57.084C8.74872 48.8333 9.33147 40.2985 10.0605 32.0478C10.353 27.9231 10.7895 23.6557 12.393 20.0992C13.7055 17.3963 16.476 14.4093 20.2672 14.4093H20.559C20.8507 14.4093 21.1417 14.4093 21.4335 14.5521C21.8715 14.6941 22.4542 14.6941 23.1832 14.6941C23.6205 14.6941 24.0585 14.6941 24.3502 14.5521C25.2247 14.4093 25.9537 13.9825 26.5372 13.6985C26.829 13.5565 27.12 13.4137 27.2662 13.4137C28.1407 13.2717 28.8697 13.1296 29.5987 13.1296C31.6402 13.1296 34.7025 13.8405 37.9102 20.0992C38.7847 21.8064 39.66 23.6557 40.6807 25.363C44.6175 33.1862 48.8452 41.4369 54.3862 48.5492C60.51 56.3724 63.5722 66.3296 62.5515 74.8644C61.0935 88.3782 48.408 93.2144 38.0565 93.2144H38.0557Z" fill="#ADDEC9" />
        <path d="M52.4909 69.4594L34.5561 45.1347C32.9526 43.0014 29.5986 43.5702 28.8696 45.9884L27.8496 48.976L45.2001 72.4471C45.7836 73.3 45.9291 74.2956 45.6374 75.15L50.4494 74.2956C52.7819 74.0115 53.9489 71.3087 52.4909 69.4594V69.4594Z" fill="#05A357" />
        <path d="M45.2 72.4463L27.8488 48.8333L19.2463 75.1492C18.5173 77.4246 20.5588 79.5586 22.8913 79.1325L45.6373 75.1492C45.9298 74.2956 45.9298 73.2999 45.2 72.4463V72.4463Z" fill="#06C167" />
        <path d="M118.492 61.2523C122.65 50.3552 118.006 38.611 108.119 35.0204C98.2325 31.4291 86.8468 37.3523 82.6888 48.2487C78.53 59.1458 83.174 70.89 93.0605 74.4806C102.947 78.0719 114.333 72.1487 118.492 61.2523V61.2523Z" fill="#B18977" />
        <path d="M112.855 37.5964C114.604 42.1479 114.751 47.553 112.855 52.8167C108.918 63.7696 97.5449 70.0283 87.6306 66.6146C85.7346 65.9037 83.9849 65.0493 82.5269 63.7696C84.4221 68.7479 88.2134 72.8732 93.4626 74.5805C103.523 77.9943 114.751 71.7356 118.687 60.7827C121.75 51.9631 119.125 42.7175 112.855 37.5964V37.5964Z" fill="#99644C" />
    </g>
    <defs>
        <clipPath id="clip0_405_1354">
            <rect width="120" height="100" fill="white" transform="translate(0 10)" />
        </clipPath>
    </defs>
</svg>
    