<svg
  width="114"
  height="24"
  viewBox="0 0 114 24"
  fill="none"
  xmlns="http://www.w3.org/2000/svg"
>
  <mask
    id="mask0_54_13331"
    style="mask-type: alpha"
    maskUnits="userSpaceOnUse"
    x="70"
    y="0"
    width="44"
    height="24"
  >
    <rect x="70.6978" width="43.3023" height="24" rx="5" fill="#D9D9D9" />
  </mask>
  <g mask="url(#mask0_54_13331)">
    <path
      d="M129.878 0H54.8198C52.0584 0 49.8198 2.23858 49.8198 5V19C49.8198 21.7614 52.0584 24 54.8198 24H129.878C132.639 24 134.878 21.7614 134.878 19V5C134.878 2.23858 132.639 0 129.878 0Z"
      fill="#FFA700"
    />
    <path
      d="M115.323 0C116.234 0 116.972 0.716593 117.181 1.60353C117.286 2.04968 117.433 2.52922 117.635 3.03536C117.801 3.45174 118.196 4.36245 119.002 5.51707C120.358 7.45799 121.073 7.50286 122.37 9.14105C123.096 10.0577 124.629 12.0517 124.36 14.5804C124.298 15.163 124.234 15.9383 123.609 16.8728C122.907 17.9212 121.837 18.6912 121.069 19.2432C120.365 19.7494 120.377 19.6586 118.976 20.6079C117.312 21.7352 116.981 22.0762 116.76 22.4161C116.737 22.4517 116.715 22.4872 116.694 22.5225C116.287 23.2187 115.68 24.0001 114.874 24.0001V24.0001C114.403 24.0001 113.942 23.7557 113.802 23.3062C113.62 22.7235 113.62 22.042 114.184 21.4091C114.959 20.5405 116.238 20.3891 117.983 19.4492C119.967 18.3799 120.849 17.2084 121.205 16.721C121.554 16.2441 123.202 13.9929 121.715 11.6455C121.125 10.7126 120.732 10.8594 118.899 9.14105C116.919 7.28436 115.879 5.70914 115.232 4.71291C114.757 3.98226 114.27 3.13955 113.828 2.19398C113.333 1.13759 114.156 0 115.323 0V0Z"
      fill="#FF0054"
    />
    <path
      d="M94.5213 -0.0458511C94.5213 -0.0458425 94.5213 -0.0458343 94.5213 -0.0458269C93.9179 0.95796 93.1708 2.70384 93.8611 4.75434C94.046 5.30377 94.3944 6.29086 95.5534 7.38542C96.5971 8.37119 97.8507 9.02137 98.9347 9.58367C99.9655 10.1183 100.19 10.1447 101.655 10.8266C103.056 11.4786 104.62 12.2062 105.919 13.0601C107.886 14.3528 108.772 15.6255 109.266 16.3487C110.454 18.0905 111.388 19.4606 110.313 20.7285C109.736 21.4098 108.504 22.1486 107.867 22.4199C107.778 22.458 107.063 22.7575 106.061 23.1298C106.034 23.1395 106.012 23.1478 105.993 23.1546C105.022 23.5129 104.18 23.7873 103.563 23.9789C103.518 23.9929 103.471 23.9999 103.424 23.9999V23.9999C102.901 23.9999 102.738 23.2064 103.203 22.9672C103.404 22.8637 103.586 22.7658 103.749 22.6752C104.563 22.2241 105.291 21.8236 105.966 21.185C106.225 20.9404 106.903 20.2882 107.193 19.4594C107.715 17.9677 106.693 16.7249 105.825 15.6686C105.504 15.278 104.549 14.1823 102.617 12.9757C100.683 11.7678 100.148 11.9344 97.2869 10.4136C94.0808 8.70937 93.1719 7.65986 92.9438 7.38536C92.2545 6.55593 92.0236 5.87515 91.8152 5.23706C91.5054 4.28857 91.2229 2.83686 91.62 1.00305C91.7578 0.366571 92.3499 -0.0458984 93.0011 -0.0458984H94.5213C94.5213 -0.0458984 94.5213 -0.0458772 94.5213 -0.0458511V-0.0458511Z"
      fill="#FF0056"
    />
    <path
      d="M91.9125 -0.0457946C91.9125 -0.045814 91.9124 -0.0458175 91.9124 -0.0457991C91.1207 2.2863 91.4491 4.11422 91.8158 5.23706C92.0242 5.87515 92.2551 6.55593 92.9445 7.38536C93.1726 7.65986 94.0814 8.70937 97.2876 10.4136C100.149 11.9344 100.684 11.7678 102.618 12.9757C104.55 14.1823 105.504 15.278 105.825 15.6686C106.694 16.7249 107.715 17.9677 107.193 19.4594C106.903 20.2882 106.226 20.9404 105.967 21.185C105.292 21.8236 104.564 22.2241 103.75 22.6752C103.114 23.0277 102.197 23.49 100.977 23.9648C100.917 23.9881 100.853 23.9999 100.789 23.9999V23.9999C100.212 23.9999 100.026 23.1234 100.534 22.85C100.644 22.7911 100.754 22.7304 100.865 22.668C102.443 21.7806 103.48 21.1976 104.092 20.2612C105.15 18.6428 104.202 17.0976 103.821 16.477C103.662 16.2166 103.219 15.5487 102.299 14.8076C101.354 14.0462 100.443 13.64 99.2364 13.0677C96.4349 11.739 95.0341 11.0747 93.8137 10.2812C92.7073 9.5619 91.413 8.70429 90.5987 7.38548C90.1497 6.65832 90.0456 6.06323 89.8876 5.26464C89.6795 4.21292 89.4924 2.80473 89.5192 1.08639C89.5291 0.448659 90.0619 -0.0457775 90.6997 -0.0457775H91.9124C91.9125 -0.0457775 91.9125 -0.0457852 91.9125 -0.0457946V-0.0457946Z"
      fill="#009CB2"
    />
    <path
      d="M89.6212 -0.0458984V-0.0458984C88.2931 -0.0458984 87.1737 0.985199 87.2313 2.31205C87.2822 3.48414 87.4267 4.47484 87.5829 5.26452C87.7708 6.21394 87.956 6.77213 88.294 7.38536C89.1029 8.8524 90.4029 9.93752 91.3417 10.5947C92.3051 11.2691 93.5078 11.8326 95.9132 12.9595C97.5241 13.7142 98.4255 14.0664 99.6382 14.8739C100.307 15.3191 100.982 15.7757 101.517 16.4769C101.77 16.8082 102.423 17.6902 102.273 18.7668C102.071 20.2213 100.517 21.2221 98.6509 22.4235C98.3308 22.6296 98.016 22.8193 97.7132 22.9927C97.2649 23.2494 97.4401 23.9999 97.9566 23.9999V23.9999C98.0171 23.9999 98.0771 23.9885 98.1333 23.966C98.8711 23.6709 99.8396 23.2443 100.865 22.6679C102.442 21.7806 103.479 21.1975 104.091 20.2612C105.15 18.6428 104.202 17.0975 103.821 16.4769C103.661 16.2165 103.218 15.5486 102.299 14.8075C101.354 14.0461 100.443 13.6399 99.236 13.0676C96.4345 11.7389 95.0337 11.0747 93.8133 10.2811C92.7069 9.56184 91.4126 8.70423 90.5983 7.38542C90.1493 6.65826 90.0452 6.06317 89.8872 5.26458C89.6351 3.99029 89.4138 2.19269 89.5663 -0.045838"
      fill="#FF8800"
    />
    <path
      d="M95.864 23.9999V23.9999C95.1765 23.9999 94.9447 22.8886 95.5399 22.5445C95.6084 22.5049 95.6771 22.4645 95.7458 22.4235C97.2966 21.4964 99.1369 20.3964 99.3681 18.7668C99.4177 18.4168 99.4737 17.4748 98.6117 16.4769C98.0051 15.7748 97.1804 15.3186 96.3929 14.883C95.4785 14.3771 94.8238 14.1366 93.9192 13.7594C92.1443 13.0195 90.434 12.3091 88.9325 11.286C87.1762 10.0893 86.4076 8.94505 86.2242 8.66014C85.4867 7.51424 85.4613 6.66334 85.3535 5.2393C85.2821 4.29704 85.1654 2.98336 84.9646 1.34966C84.8768 0.635535 85.4299 -0.000117911 86.1494 -0.000117911H87.2133C87.2391 -0.000117911 87.2605 -0.0201358 87.2622 -0.0458984V-0.0458984C87.1097 2.19269 87.331 3.99029 87.5831 5.26452C87.771 6.21394 87.9562 6.77213 88.2942 7.38536C89.1031 8.8524 90.4031 9.93752 91.3419 10.5947C92.3053 11.2691 93.5079 11.8326 95.9134 12.9595C97.5243 13.7142 98.4256 14.0664 99.6384 14.8739C100.307 15.3191 100.982 15.7757 101.517 16.4769C101.77 16.8082 102.423 17.6902 102.273 18.7668C102.072 20.2213 100.517 21.2221 98.6511 22.4235C97.5182 23.1529 96.4527 23.6768 95.744 23.9999"
      fill="#00BFBA"
    />
    <path
      d="M83.8261 22.2316C84.4219 22.9558 83.8836 23.9997 82.9458 23.9997H66.8719C65.1076 23.9997 63.5085 23.0393 62.3972 21.6689C62.378 21.6452 62.359 21.6219 62.3403 21.5991C62.0935 21.2973 59.9811 18.732 59.9106 17.5009C59.8809 16.983 60.2109 16.6668 60.2822 16.6011C60.3442 16.544 60.5409 16.3725 60.9864 16.1782C61.7356 15.8516 62.5836 15.7243 63.2704 15.6711C64.3283 15.5893 64.9349 15.6927 66.7609 15.8633C67.1022 15.8952 67.4107 15.9192 68.3694 15.9988C69.357 16.0809 69.6201 16.1005 69.8652 16.1213C69.8668 16.1215 69.8667 16.1215 69.8683 16.1216C69.9198 16.1261 73.0473 16.3996 75.8853 17.1606C75.9395 17.1751 75.9848 17.1876 76.0215 17.1977C76.2244 17.2535 76.4659 17.3142 76.756 17.4108C77.3823 17.6193 79.8962 18.4251 81.9293 20.1492C82.5353 20.6631 82.9656 21.1859 83.8261 22.2316V22.2316Z"
      fill="#00BFBD"
    />
    <path
      d="M82.3342 2.13209C82.1396 0.833614 80.9323 0 79.6194 0H69.1762C67.5925 0 66.8024 2.28125 67.4371 3.73217V3.73217C69.121 7.58112 65.627 10.5022 68.6934 12.257C69.2601 12.5813 70.1206 12.8386 71.8416 13.3531C74.4742 14.1403 75.7671 14.2282 77.4128 14.6476C80.8009 15.5112 82.7417 17.0294 83.8509 17.8972C86.6861 20.1153 86.4675 21.7211 88.8597 22.0974C90.19 22.3066 91.4683 22.0003 92.098 21.8495C92.3771 21.7826 94.9325 21.1416 95.6497 19.5559C96.1965 18.347 95.3204 17.3731 95.0765 17.1122C94.6191 16.6228 93.9767 16.3036 92.7106 15.6851C92.3444 15.5062 91.095 14.9055 87.3997 13.5321C85.7932 12.935 85.708 12.9292 85.3764 12.7379C84.9865 12.513 84.0759 11.9279 83.26 10.1964C82.791 9.20104 82.6255 8.40444 82.5546 8.02151C82.0863 5.49245 82.6942 4.53578 82.3342 2.13209V2.13209Z"
      fill="#8E5B9C"
    />
    <path
      d="M78.7316 2.13339C78.7966 0.828308 77.515 0 76.2083 0H73.5582C71.7153 0 70.8091 2.24826 72.1321 3.53127V3.53127C74.1145 5.45387 74.9248 6.25452 75.8973 6.20505C76.9612 6.15092 77.5938 5.11115 78.0111 4.42529C78.3192 3.9188 78.6813 3.14484 78.7316 2.13339Z"
      fill="#00CBC1"
    />
    <path
      d="M75.0974 19.1355C78.7688 20.1675 77.1264 23.9998 73.3127 23.9998H68.3662C66.8887 23.9998 65.3835 23.2048 65.2585 21.7326V21.7326C65.164 20.62 65.0997 19.8625 65.8166 19.3095C67.2759 18.1836 71.338 18.3941 73.6348 18.8023C74.1514 18.8941 74.6384 19.0065 75.0974 19.1355Z"
      fill="#FF8800"
    />
    <path
      d="M77.7426 22.566C78.4384 23.0586 78.0303 23.9994 77.1778 23.9994H70.6997C69.0693 23.9994 67.3797 22.6495 68.6076 21.577C68.9372 21.2891 69.3634 21.0517 69.8702 20.8859C71.8894 20.2254 74.375 20.9677 74.9828 21.1492C76.2952 21.5412 77.1048 22.1144 77.7426 22.566V22.566Z"
      fill="#009DB4"
    />
    <path
      d="M72.5677 23.4522C72.0971 23.5303 72.2152 23.9998 72.6922 23.9998H73.1634C73.8295 23.9998 73.9402 23.4069 73.2741 23.3997C73.0349 23.3971 72.7972 23.4141 72.5677 23.4522V23.4522Z"
      fill="#FF0058"
    />
    <path
      d="M110.614 2.05902C109.866 0.695966 108.349 0 106.794 0H100.05C98.4391 0 96.7771 0.733735 96.3495 2.28677C96.0054 3.53657 96.0614 5.06362 97.5069 6.38677C98.5005 7.29622 100.445 8.37886 102.63 9.1359C104.114 9.64977 105.088 9.79884 106.872 10.5795C107.882 11.0217 108.962 11.4941 109.938 12.2774C110.255 12.5321 110.916 13.3689 112.224 15.032C112.731 15.6762 113.355 16.4767 114.704 16.8588C115.099 16.9705 115.392 17.0004 115.626 17.0048C116.981 17.0307 117.958 16.239 118.131 16.0991C119.378 15.088 118.812 13.8307 118.653 13.4766C118.309 12.7125 117.671 12.216 116.656 11.4259C115.287 10.3604 114.482 10.1402 113.693 9.17213C113.346 8.7474 113.198 8.41829 112.975 7.88798C112.078 5.76 111.647 4.37171 111.281 3.46341C111.125 3.07285 110.911 2.59991 110.614 2.05902Z"
      fill="#FF0047"
    />
    <path
      d="M107.9 4.15354C108.03 5.35829 106.774 6.88894 104.803 7.04576C102.867 7.19985 101.234 5.94926 100.803 5.61894C100.408 5.31632 99.5472 4.65761 99.5503 3.72936C99.5541 2.58285 100.874 1.2199 102.681 1.10705C103.694 1.04385 104.517 1.3948 105.274 1.71798C105.799 1.94223 107.75 2.77511 107.9 4.15354Z"
      fill="#009BB3"
    />
  </g>
  <path
    d="M23.8099 8.14091C22.8963 7.1255 21.6219 6.49707 20.1073 6.49707C16.7413 6.49707 14.1929 9.27715 14.1929 12.9518C14.1929 16.6265 16.7413 19.4065 20.1073 19.4065C21.6212 19.4065 22.8883 18.7783 23.8099 17.7426V19.4065H27.32V19.1111V14.7167V6.7873H23.8099V8.14091ZM20.8045 15.9976C19.0975 15.9976 17.8234 14.6922 17.8234 12.9516C17.8234 11.211 19.0977 9.90558 20.8045 9.90558C22.5356 9.90558 23.8099 11.211 23.8099 12.9516C23.8099 14.6922 22.5356 15.9976 20.8045 15.9976Z"
    fill="#343537"
  />
  <path
    d="M34.7015 11.5253C33.1146 11.1626 32.4176 10.7759 32.4176 10.1958C32.4176 9.68821 32.9944 9.30123 33.6436 9.30123C34.3889 9.30123 34.966 9.78475 34.966 10.365H38.4761C38.4761 8.21337 36.4325 6.49707 33.6436 6.49707C31.1433 6.49707 28.9314 7.87516 28.9314 10.4377C28.9314 12.4199 30.3017 13.7496 32.9463 14.3056C34.4368 14.5956 35.1582 15.0308 35.1582 15.6351C35.1582 16.2395 34.4851 16.6022 33.7877 16.6022C32.9222 16.6022 32.2489 16.046 32.2489 15.3692H28.7388C28.7388 17.5933 30.8305 19.4063 33.7635 19.4063C36.4082 19.4063 38.644 17.9317 38.644 15.3208C38.6444 13.3627 37.3703 12.1297 34.7015 11.5253Z"
    fill="#343537"
  />
  <path
    d="M44.415 3.54834H41.0973V5.77244C41.0973 6.44925 40.7608 6.78765 40.0875 6.78765H39.0537V10.0029H40.9049V15.1038C40.9049 17.7388 42.3956 19.1169 45.3286 19.1169H47.0836V15.9016H45.8574C44.9438 15.9016 44.4148 15.394 44.4148 14.5235V10.0029H47.0836V6.78765H44.4148V3.54834H44.415Z"
    fill="#343537"
  />
  <path
    d="M51.9882 8.52831V6.78772H48.478V19.1169H51.9882V13.3633C51.9882 11.4535 53.3106 10.2205 55.6907 10.2205V6.59424C54.2 6.59424 52.9259 7.31961 51.9882 8.52831Z"
    fill="#343537"
  />
  <path
    d="M62.6395 6.49707C58.8649 6.49707 56.0278 9.27715 56.0278 12.9518C56.0278 16.6265 58.8649 19.4065 62.6395 19.4065C66.4141 19.4065 69.251 16.6265 69.251 12.9518C69.251 9.27735 66.4139 6.49707 62.6395 6.49707ZM62.6395 15.9978C60.9085 15.9978 59.6342 14.6924 59.6342 12.9518C59.6342 11.2112 60.9085 9.90578 62.6395 9.90578C64.3705 9.90578 65.6448 11.2112 65.6448 12.9518C65.6446 14.6924 64.3703 15.9978 62.6395 15.9978Z"
    fill="#343537"
  />
  <path
    d="M108.733 6.7871V8.14091C107.822 7.1255 106.552 6.49707 105.042 6.49707C101.686 6.49707 99.145 9.27715 99.145 12.9518C99.145 16.6265 101.686 19.4065 105.042 19.4065C106.551 19.4065 107.814 18.7783 108.733 17.7426V19.4065H112.233V19.1111V14.7167V6.7873H108.733V6.7871ZM105.737 15.9978C104.035 15.9978 102.765 14.6924 102.765 12.9518C102.765 11.2112 104.035 9.90578 105.737 9.90578C107.463 9.90578 108.733 11.2112 108.733 12.9518C108.733 14.6924 107.463 15.9978 105.737 15.9978Z"
    fill="white"
  />
  <path
    d="M91.785 14.7165V11.0661C91.785 8.31011 90.0112 6.49707 87.3504 6.49707C85.6246 6.49707 84.2343 7.22245 83.2995 8.62443C82.5564 7.29471 81.1902 6.49707 79.4402 6.49707C78.0261 6.49707 76.8515 7.05305 75.9645 8.09274V6.7873H72.4648V19.1165H75.9645V12.1783C75.9645 10.8244 76.8994 9.90578 78.2657 9.90578C79.5362 9.90578 80.375 10.8002 80.375 12.1299V19.1165H83.8746V12.1783C83.8746 10.8244 84.8094 9.90578 86.1758 9.90578C87.4463 9.90578 88.2852 10.8002 88.2852 12.1299V15.4902C88.2852 17.8835 89.5557 19.1165 92.0246 19.1165H93.0073V15.7078H92.7675C92.1446 15.7076 91.785 15.3449 91.785 14.7165Z"
    fill="white"
  />
  <path
    d="M96.0762 0.888672C94.8537 0.888672 93.9189 1.80733 93.9189 3.04012C93.9189 4.29718 94.8537 5.21585 96.0762 5.21585C97.3227 5.21585 98.2576 4.29718 98.2576 3.04012C98.2574 1.80733 97.3227 0.888672 96.0762 0.888672Z"
    fill="white"
  />
  <path d="M97.8261 6.78711H94.3267V19.1163H97.8261V6.78711Z" fill="white" />
  <path
    d="M5.58938 6.49707V6.50563C2.36431 6.67125 0 9.29506 0 12.7342C0 16.2879 2.52446 18.9955 5.91444 18.9955C7.42907 18.9955 8.70338 18.3911 9.617 17.3757V17.7625C9.617 19.5757 8.51096 20.7844 6.8041 20.7844C5.67411 20.7844 4.71239 20.3493 4.27963 19.6482H0.64933C1.41863 22.3317 3.65465 23.9997 6.8041 23.9997C10.6027 23.9997 13.1271 21.5339 13.1271 17.7868V8.42935V6.7871V6.49707H5.58938ZM6.61148 15.7803C4.88046 15.7803 3.60615 14.4748 3.60615 12.7342C3.60615 11.0177 4.88046 9.68821 6.61148 9.68821C8.34249 9.68821 9.6168 11.0177 9.6168 12.7342C9.6168 14.4748 8.34269 15.7803 6.61148 15.7803Z"
    fill="#343537"
  />
</svg>
