<svg width="16" height="16" viewBox="0 0 16 16" fill="none" xmlns="http://www.w3.org/2000/svg">
    <path fill-rule="evenodd" clip-rule="evenodd" d="M9.03533 1.25354C8.91034 1.09889 8.75235 0.974152 8.57292 0.888463C8.39349 0.802774 8.19717 0.758301 7.99833 0.758301C7.79949 0.758301 7.60316 0.802774 7.42373 0.888463C7.2443 0.974152 7.08631 1.09889 6.96133 1.25354L6.68933 1.58954C6.52701 1.79033 6.30989 1.93967 6.06432 2.01944C5.81876 2.0992 5.55532 2.10595 5.30599 2.03887L4.88866 1.92687C4.69667 1.87521 4.49555 1.86714 4.30004 1.90325C4.10453 1.93936 3.91957 2.01874 3.7587 2.13557C3.59783 2.25241 3.46512 2.40374 3.3703 2.57849C3.27547 2.75324 3.22093 2.94698 3.21066 3.14554L3.18866 3.57754C3.17528 3.83524 3.0874 4.08352 2.9357 4.29226C2.78399 4.50101 2.57497 4.66124 2.33399 4.75354L1.92999 4.9082C1.74438 4.97932 1.57702 5.09104 1.44016 5.23518C1.3033 5.37933 1.20039 5.55224 1.13897 5.74129C1.07756 5.93033 1.05918 6.13071 1.0852 6.32777C1.11121 6.52483 1.18096 6.71357 1.28933 6.8802L1.52466 7.24287C1.66539 7.45922 1.74029 7.71177 1.74029 7.96987C1.74029 8.22797 1.66539 8.48051 1.52466 8.69687L1.28933 9.05954C1.18096 9.22616 1.11121 9.41491 1.0852 9.61197C1.05918 9.80903 1.07756 10.0094 1.13897 10.1985C1.20039 10.3875 1.3033 10.5604 1.44016 10.7046C1.57702 10.8487 1.74438 10.9604 1.92999 11.0315L2.33399 11.1862C2.57507 11.2785 2.78416 11.4389 2.93587 11.6478C3.08759 11.8566 3.1754 12.1051 3.18866 12.3629L3.21066 12.7949C3.22093 12.9934 3.27547 13.1872 3.3703 13.3619C3.46512 13.5367 3.59783 13.688 3.7587 13.8048C3.91957 13.9217 4.10453 14.001 4.30004 14.0372C4.49555 14.0733 4.69667 14.0652 4.88866 14.0135L5.30599 13.9015C5.55532 13.8345 5.81876 13.8412 6.06432 13.921C6.30989 14.0007 6.52701 14.1501 6.68933 14.3509L6.96133 14.6869C7.08632 14.8414 7.24427 14.966 7.42364 15.0516C7.603 15.1373 7.79924 15.1817 7.99799 15.1817C8.19674 15.1817 8.39298 15.1373 8.57235 15.0516C8.75171 14.966 8.90967 14.8414 9.03466 14.6869L9.30666 14.3509C9.46898 14.1501 9.6861 14.0007 9.93166 13.921C10.1772 13.8412 10.4407 13.8345 10.69 13.9015L11.1073 14.0135C11.2993 14.0652 11.5004 14.0733 11.6959 14.0372C11.8915 14.001 12.0764 13.9217 12.2373 13.8048C12.3982 13.688 12.5309 13.5367 12.6257 13.3619C12.7205 13.1872 12.7751 12.9934 12.7853 12.7949L12.8073 12.3629C12.8206 12.105 12.9085 11.8565 13.0604 11.6476C13.2122 11.4387 13.4215 11.2784 13.6627 11.1862L14.066 11.0315C14.2517 10.9605 14.4191 10.8488 14.556 10.7047C14.693 10.5606 14.7959 10.3877 14.8574 10.1986C14.9189 10.0096 14.9373 9.80918 14.9114 9.61209C14.8854 9.415 14.8157 9.22621 14.7073 9.05954L14.4713 8.69687C14.3306 8.48051 14.2557 8.22797 14.2557 7.96987C14.2557 7.71177 14.3306 7.45922 14.4713 7.24287L14.7073 6.8802C14.8157 6.71353 14.8854 6.52474 14.9114 6.32765C14.9373 6.13056 14.9189 5.93015 14.8574 5.7411C14.7959 5.55205 14.693 5.37914 14.556 5.23503C14.4191 5.09092 14.2517 4.97925 14.066 4.9082L13.6627 4.75354C13.4215 4.6613 13.2122 4.50101 13.0604 4.29213C12.9085 4.08324 12.8206 3.83476 12.8073 3.57687L12.7853 3.14487C12.775 2.9463 12.7204 2.75256 12.6255 2.57783C12.5306 2.4031 12.3978 2.25181 12.2368 2.13504C12.0759 2.01826 11.8909 1.93896 11.6953 1.90294C11.4998 1.86693 11.2986 1.8751 11.1067 1.92687L10.6893 2.03887C10.44 2.10595 10.1766 2.0992 9.93099 2.01944C9.68543 1.93967 9.46831 1.79033 9.30599 1.58954L9.03399 1.25354H9.03533ZM4.12399 7.43087C4.31143 7.24331 4.56569 7.13787 4.83085 7.13775C5.09602 7.13762 5.35038 7.24282 5.53799 7.4302L6.83333 8.72354L10.4573 5.09687C10.6448 4.90927 10.8992 4.80385 11.1644 4.80378C11.2958 4.80375 11.4258 4.82959 11.5472 4.87982C11.6685 4.93005 11.7788 5.00369 11.8717 5.09654C11.9645 5.18938 12.0382 5.29961 12.0885 5.42094C12.1388 5.54226 12.1647 5.6723 12.1647 5.80363C12.1648 5.93497 12.1389 6.06502 12.0887 6.18637C12.0385 6.30771 11.9648 6.41798 11.872 6.51087L7.54066 10.8442C7.35316 11.0315 7.09899 11.1367 6.83399 11.1367C6.56899 11.1367 6.31483 11.0315 6.12733 10.8442L4.12466 8.8442C3.93739 8.6567 3.83221 8.40254 3.83221 8.13754C3.83221 7.87254 3.93739 7.61837 4.12466 7.43087H4.12399Z" fill="#2B78C6" />
</svg>
    