<svg width="24" height="24" viewBox="0 0 24 24" fill="current" xmlns="http://www.w3.org/2000/svg" size="24" class="css-1qumf7v-MenuLink">
    <path fill-rule="evenodd" clip-rule="evenodd" d="M12 21.5a9.5 9.5 0 1 0 0-19 9.5 9.5 0 0 0 0 19Zm0-3a1.5 1.5 0 1 0 0-3 1.5 1.5 0 0 0 0 3Zm-.337-4.115c.718.3 1.557-.008 1.874-.69.06-.13.243-.456.5-.704.323-.313.717-.56.758-.586 1.114-.674 1.705-1.624 1.705-2.855 0-2.187-1.27-4.05-4.263-4.05C9.264 5.5 7.5 7.448 7.5 10c0 .745.636 1.35 1.421 1.35s1.421-.605 1.421-1.35c0-1.143.595-1.8 1.895-1.8 1.13 0 1.895 1.55.451 2.487-.794.516-1.362 1.078-1.751 1.918-.317.682.008 1.479.726 1.78Zm3.132-1.98.004-.002-.004.003Z"></path>
</svg>