<svg width="16" height="16" viewBox="0 0 16 16" fill="none" xmlns="http://www.w3.org/2000/svg">
    <path fill-rule="evenodd" clip-rule="evenodd" d="M7.99984 14.3332C9.67954 14.3332 11.2905 13.6659 12.4782 12.4782C13.6659 11.2905 14.3332 9.67954 14.3332 7.99984C14.3332 6.32013 13.6659 4.70922 12.4782 3.52149C11.2905 2.33376 9.67954 1.6665 7.99984 1.6665C6.32013 1.6665 4.70922 2.33376 3.52149 3.52149C2.33376 4.70922 1.6665 6.32013 1.6665 7.99984C1.6665 9.67954 2.33376 11.2905 3.52149 12.4782C4.70922 13.6659 6.32013 14.3332 7.99984 14.3332ZM6.99984 7.99984C6.99984 7.73462 7.10519 7.48027 7.29273 7.29273C7.48027 7.10519 7.73462 6.99984 7.99984 6.99984C8.26505 6.99984 8.51941 7.10519 8.70694 7.29273C8.89448 7.48027 8.99984 7.73462 8.99984 7.99984V10.6665C8.99984 10.9317 8.89448 11.1861 8.70694 11.3736C8.51941 11.5611 8.26505 11.6665 7.99984 11.6665C7.73462 11.6665 7.48027 11.5611 7.29273 11.3736C7.10519 11.1861 6.99984 10.9317 6.99984 10.6665V7.99984ZM8.99984 5.33317C8.99984 5.59839 8.89448 5.85274 8.70694 6.04028C8.51941 6.22781 8.26505 6.33317 7.99984 6.33317C7.73462 6.33317 7.48027 6.22781 7.29273 6.04028C7.10519 5.85274 6.99984 5.59839 6.99984 5.33317C6.99984 5.06795 7.10519 4.8136 7.29273 4.62606C7.48027 4.43853 7.73462 4.33317 7.99984 4.33317C8.26505 4.33317 8.51941 4.43853 8.70694 4.62606C8.89448 4.8136 8.99984 5.06795 8.99984 5.33317Z" fill="#C7C8CD" />
</svg>
    