<svg width="43" height="24" viewBox="0 0 43 24" fill="none" xmlns="http://www.w3.org/2000/svg">
    <mask id="mask0_357_1193" style="mask-type:alpha" maskUnits="userSpaceOnUse" x="0" y="0" width="43" height="24">
        <rect width="43" height="24" rx="5" fill="#D9D9D9" />
    </mask>
    <g mask="url(#mask0_357_1193)">
        <path d="M58.7321 0H-15.7322C-18.4936 0 -20.7322 2.23858 -20.7322 5V19C-20.7322 21.7614 -18.4936 24 -15.7322 24H58.7321C61.4935 24 63.7321 21.7614 63.7321 19V5C63.7321 2.23858 61.4935 0 58.7321 0Z" fill="#FFA700" />
        <path d="M44.3116 0C45.2178 0 45.9516 0.712661 46.1574 1.59514C46.262 2.04367 46.408 2.52605 46.6101 3.03536C46.7753 3.45174 47.167 4.36245 47.9679 5.51707C49.3145 7.45799 50.0242 7.50286 51.3124 9.14105C52.0332 10.0577 53.5553 12.0517 53.2882 14.5804C53.2266 15.163 53.1625 15.9383 52.5419 16.8728C51.8455 17.9212 50.7823 18.6912 50.02 19.2432C49.3211 19.7494 49.3329 19.6586 47.9417 20.6079C46.2897 21.7352 45.9608 22.0762 45.7412 22.4161C45.7158 22.4553 45.6921 22.4943 45.6698 22.533C45.2712 23.2267 44.6702 24.0001 43.8702 24.0001V24.0001C43.4013 24.0001 42.9435 23.756 42.8043 23.3082C42.623 22.7251 42.6224 22.0428 43.1834 21.4091C43.9525 20.5405 45.2229 20.3891 46.9552 19.4492C48.9257 18.3799 49.8013 17.2084 50.1554 16.721C50.5019 16.2441 52.1378 13.9929 50.6618 11.6455C50.0753 10.7126 49.6857 10.8594 47.8656 9.14105C45.8988 7.28436 44.8667 5.70914 44.2238 4.71291C43.7499 3.97836 43.2636 3.13055 42.8221 2.17883C42.3349 1.12826 43.1535 0 44.3116 0V0Z" fill="#FF0054" />
        <path d="M23.6576 -0.045851C23.6576 -0.0458425 23.6576 -0.0458343 23.6576 -0.0458269C23.0584 0.95796 22.3165 2.70384 23.002 4.75434C23.1856 5.30377 23.5316 6.29086 24.6825 7.38542C25.7189 8.37119 26.9638 9.02137 28.0402 9.58367C29.0638 10.1183 29.2865 10.1447 30.7417 10.8266C32.1329 11.4786 33.6855 12.2062 34.9757 13.0601C36.9292 14.3528 37.8091 15.6255 38.2989 16.3487C39.4788 18.0905 40.4067 19.4606 39.3393 20.7285C38.7658 21.4098 37.5428 22.1486 36.9102 22.4199C36.8213 22.458 36.1119 22.7575 35.1163 23.1298C35.0903 23.1396 35.0681 23.1478 35.0496 23.1546C34.0856 23.5127 33.2496 23.7871 32.6367 23.9787C32.5914 23.9928 32.5443 23.9999 32.4969 23.9999V23.9999C31.9751 23.9999 31.8117 23.209 32.275 22.9689C32.476 22.8648 32.6579 22.7663 32.8212 22.6752C33.6293 22.2241 34.3521 21.8236 35.0228 21.185C35.2796 20.9405 35.9526 20.2882 36.2407 19.4594C36.759 17.9677 35.7445 16.7249 34.8822 15.6686C34.5635 15.278 33.6156 14.1823 31.697 12.9757C29.7763 11.7678 29.2449 11.9344 26.4039 10.4136C23.2202 8.70937 22.3176 7.65986 22.0911 7.38536C21.4066 6.55593 21.1773 5.87515 20.9703 5.23707C20.6624 4.28763 20.3816 2.83397 20.7777 0.997585C20.9142 0.364879 21.5022 -0.0458984 22.1494 -0.0458984H23.6576C23.6576 -0.0458984 23.6576 -0.0458772 23.6576 -0.045851V-0.045851Z" fill="#FF0056" />
        <path d="M21.0665 -0.0457945C21.0665 -0.0458138 21.0664 -0.0458172 21.0664 -0.0457989C20.2803 2.2863 20.6063 4.11422 20.9705 5.23707C21.1774 5.87515 21.4067 6.55593 22.0913 7.38536C22.3178 7.65986 23.2203 8.70937 26.404 10.4136C29.2451 11.9344 29.7764 11.7678 31.6971 12.9757C33.6157 14.1823 34.5635 15.278 34.8824 15.6686C35.7446 16.7249 36.759 17.9677 36.2408 19.4594C35.9528 20.2882 35.2797 20.9405 35.0229 21.185C34.3522 21.8236 33.6295 22.2241 32.8214 22.6752C32.1898 23.0276 31.2793 23.4897 30.0686 23.9644C30.0085 23.988 29.9443 23.9999 29.8797 23.9999V23.9999C29.3044 23.9999 29.1181 23.1263 29.6239 22.8522C29.7339 22.7926 29.8449 22.7312 29.9565 22.668C31.5233 21.7806 32.5529 21.1976 33.1608 20.2612C34.2116 18.6428 33.2704 17.0976 32.8923 16.477C32.7337 16.2166 32.2939 15.5487 31.3807 14.8076C30.4425 14.0462 29.5377 13.64 28.3392 13.0677C25.5574 11.739 24.1663 11.0747 22.9544 10.2812C21.8557 9.5619 20.5705 8.70429 19.7619 7.38548C19.316 6.65832 19.2127 6.06323 19.0558 5.26464C18.8488 4.21137 18.6628 2.80057 18.69 1.07878C18.7 0.445429 19.229 -0.0457775 19.8624 -0.0457775H21.0664C21.0665 -0.0457775 21.0665 -0.0457851 21.0665 -0.0457945V-0.0457945Z" fill="#009CB2" />
        <path d="M18.7916 -0.0458984V-0.0458984C17.4729 -0.0458984 16.3619 0.978037 16.4177 2.29552C16.4676 3.47483 16.6116 4.47113 16.7676 5.26452C16.9541 6.21394 17.138 6.77213 17.4737 7.38536C18.2769 8.8524 19.5678 9.93752 20.5001 10.5947C21.4568 11.2691 22.651 11.8326 25.0397 12.9595C26.6393 13.7142 27.5344 14.0664 28.7386 14.8739C29.4025 15.3191 30.073 15.7757 30.6041 16.4769C30.8551 16.8082 31.5036 17.6902 31.3552 18.7668C31.1548 20.2213 29.6112 21.2221 27.7583 22.4235C27.439 22.6304 27.1252 22.8209 26.8233 22.9949C26.3769 23.2522 26.5524 23.9999 27.0677 23.9999V23.9999C27.1285 23.9999 27.1888 23.9884 27.2452 23.9657C27.9777 23.6706 28.9391 23.2441 29.9565 22.6679C31.5233 21.7806 32.5529 21.1975 33.1608 20.2612C34.2117 18.6428 33.2704 17.0975 32.8923 16.4769C32.7337 16.2165 32.2939 15.5486 31.3807 14.8075C30.4425 14.0461 29.5377 13.6399 28.3392 13.0676C25.5574 11.7389 24.1663 11.0747 22.9544 10.2811C21.8557 9.56184 20.5705 8.70423 19.7619 7.38542C19.316 6.65826 19.2127 6.06317 19.0558 5.26458C18.8054 3.99029 18.5856 2.19269 18.7371 -0.045838" fill="#FF8800" />
        <path d="M24.9907 23.9999V23.9999C24.3043 23.9999 24.0719 22.8919 24.6651 22.5467C24.7344 22.5063 24.8038 22.4653 24.8733 22.4235C26.4134 21.4964 28.2407 20.3964 28.4703 18.7668C28.5196 18.4168 28.5752 17.4748 27.7192 16.4769C27.1169 15.7748 26.298 15.3186 25.516 14.883C24.6079 14.3771 23.9577 14.1366 23.0595 13.7594C21.297 13.0195 19.5986 12.3091 18.1076 11.286C16.3636 10.0893 15.6004 8.94505 15.4182 8.66014C14.6859 7.51424 14.6606 6.66334 14.5536 5.2393C14.4825 4.29509 14.3664 2.97794 14.1662 1.33955C14.0795 0.630568 14.6289 -0.000117911 15.3431 -0.000117911H16.4001C16.4259 -0.000117911 16.4473 -0.0201391 16.449 -0.0458984V-0.0458984C16.2975 2.19269 16.5172 3.99029 16.7676 5.26452C16.9542 6.21394 17.1381 6.77213 17.4738 7.38536C18.277 8.8524 19.5679 9.93752 20.5002 10.5947C21.4568 11.2691 22.6511 11.8326 25.0398 12.9595C26.6394 13.7142 27.5345 14.0664 28.7387 14.8739C29.4026 15.3191 30.0731 15.7757 30.6042 16.4769C30.8552 16.8082 31.5037 17.6902 31.3553 18.7668C31.1549 20.2213 29.6113 21.2221 27.7583 22.4235C26.6334 23.1529 25.5753 23.6768 24.8716 23.9999" fill="#00BFBA" />
        <path d="M13.0371 22.2321C13.6301 22.958 13.0905 24.0001 12.1531 24.0001H-3.76869C-5.53852 24.0001 -7.14148 23.0341 -8.25257 21.6565C-8.26812 21.6372 -8.28349 21.6182 -8.29866 21.5995C-8.54375 21.2978 -10.6415 18.7325 -10.7115 17.5014C-10.7409 16.9835 -10.4133 16.6673 -10.3424 16.6015C-10.2809 16.5445 -10.0855 16.373 -9.6431 16.1787C-8.89915 15.8521 -8.05714 15.7248 -7.37505 15.6716C-6.32457 15.5898 -5.72224 15.6932 -3.90895 15.8638C-3.57002 15.8957 -3.2637 15.9197 -2.31171 15.9993C-1.33102 16.0814 -1.06977 16.101 -0.826344 16.1218C-0.824721 16.122 -0.82488 16.1219 -0.823257 16.1221C-0.771406 16.1266 2.33391 16.4002 5.15176 17.1611C5.2055 17.1756 5.25058 17.188 5.28699 17.1981C5.48841 17.254 5.72831 17.3147 6.01631 17.4113C6.63826 17.6198 9.1346 18.4256 11.1535 20.1497C11.7553 20.6636 12.1826 21.1864 13.0371 22.2321V22.2321Z" fill="#00BFBD" />
        <path d="M11.5551 2.13209C11.362 0.834484 10.1567 0 8.84482 0H-1.49132C-3.07633 0 -3.86946 2.27842 -3.23791 3.73217V3.73217C-1.5658 7.58112 -5.03538 10.5022 -1.99044 12.257C-1.42765 12.5813 -0.573178 12.8386 1.13577 13.3531C3.75 14.1403 5.03388 14.2282 6.66806 14.6476C10.0325 15.5112 11.9598 17.0294 13.0612 17.8972C15.8767 20.1153 15.6596 21.7211 18.0351 22.0974C19.3561 22.3066 20.6255 22.0004 21.2508 21.8495C21.5279 21.7826 24.0655 21.1416 24.7777 19.5559C25.3206 18.347 24.4506 17.3731 24.2085 17.1122C23.7543 16.6228 23.1164 16.3036 21.8591 15.6851C21.4954 15.5062 20.2548 14.9055 16.5853 13.5321C14.99 12.935 14.9054 12.9292 14.5761 12.7379C14.189 12.513 13.2846 11.9279 12.4745 10.1964C12.0088 9.20104 11.8444 8.40444 11.774 8.02151C11.3089 5.49245 11.9127 4.53578 11.5551 2.13209V2.13209Z" fill="#8E5B9C" />
        <path d="M7.97842 2.13135C8.04231 0.828349 6.76455 0 5.45998 0H2.85815C1.01606 0 0.106975 2.24422 1.42485 3.53127V3.53127C3.39341 5.45387 4.19804 6.25451 5.16379 6.20504C6.22023 6.15092 6.84846 5.11115 7.2628 4.42529C7.56892 3.91846 7.92878 3.1438 7.97842 2.13135Z" fill="#00CBC1" />
        <path d="M4.36058 19.1333C8.02444 20.1678 6.37374 24.0001 2.56661 24.0001H-2.29983C-3.77563 24.0001 -5.27684 23.2034 -5.40086 21.7328V21.7328C-5.49469 20.6203 -5.55851 19.8628 -4.84663 19.3097C-3.39752 18.1838 0.636255 18.3944 2.91698 18.8025C3.42663 18.8937 3.90739 19.0053 4.36058 19.1333Z" fill="#FF8800" />
        <path d="M6.99541 22.5667C7.68868 23.061 7.27915 24.0001 6.42773 24.0001H0.016307C-1.61088 24.0001 -3.2979 22.6533 -2.0764 21.5782C-1.74906 21.2902 -1.32559 21.0525 -0.822049 20.8867C1.18303 20.2261 3.65131 20.9685 4.25484 21.15C5.55811 21.5419 6.36209 22.1152 6.99541 22.5667V22.5667Z" fill="#009DB4" />
        <path d="M1.85673 23.4525C1.38728 23.5309 1.50601 24 1.98198 24H2.44868C3.11279 24 3.22415 23.4075 2.56008 23.3999C2.32194 23.3972 2.08526 23.4143 1.85673 23.4525V23.4525Z" fill="#FF0058" />
        <path d="M39.6459 2.0728C38.9006 0.701506 37.3782 0 35.8174 0H29.1763C27.5596 0 25.8919 0.739903 25.4695 2.30044C25.132 3.54769 25.1924 5.06844 26.6226 6.38678C27.6093 7.29622 29.5401 8.37886 31.7101 9.1359C33.1832 9.64977 34.1508 9.79885 35.9223 10.5795C36.9257 11.0217 37.9979 11.4941 38.9665 12.2774C39.2815 12.5321 39.9377 13.3689 41.237 15.032C41.7403 15.6762 42.3605 16.4767 43.6998 16.8588C44.0916 16.9705 44.3832 17.0004 44.6155 17.0048C45.9609 17.0307 46.9309 16.239 47.1023 16.0991C48.3411 15.088 47.7791 13.8307 47.6208 13.4766C47.2791 12.7125 46.6457 12.216 45.6378 11.4259C44.2786 10.3604 43.4794 10.1402 42.6953 9.17213C42.3512 8.74741 42.2041 8.41829 41.9824 7.88798C41.0924 5.76 40.6636 4.37171 40.301 3.46341C40.1464 3.07617 39.9367 2.60795 39.6459 2.0728Z" fill="#FF0047" />
        <path d="M36.9424 4.15452C37.0719 5.35927 35.825 6.88992 33.8677 7.04674C31.9451 7.20083 30.3233 5.95024 29.895 5.61992C29.5025 5.3173 28.6482 4.65859 28.6513 3.73034C28.6551 2.58383 29.9659 1.22088 31.7605 1.10803C32.7663 1.04483 33.5829 1.39577 34.3347 1.71896C34.8564 1.94321 36.7941 2.77608 36.9424 4.15452Z" fill="#009BB3" />
        <path d="M37.7697 6.78734V8.14115C36.8652 7.12575 35.6035 6.49731 34.104 6.49731C30.7714 6.49731 28.2484 9.27739 28.2484 12.952C28.2484 16.6267 30.7714 19.4068 34.104 19.4068C35.6025 19.4068 36.8573 18.7785 37.7697 17.7428V19.4068H41.2449V19.1114V14.7169V6.78754H37.7697V6.78734ZM34.7943 15.9981C33.1042 15.9981 31.8428 14.6926 31.8428 12.952C31.8428 11.2115 33.1044 9.90602 34.7943 9.90602C36.508 9.90602 37.7697 11.2115 37.7697 12.952C37.7697 14.6926 36.508 15.9981 34.7943 15.9981Z" fill="white" />
        <path d="M20.9404 14.717V11.0666C20.9404 8.3106 19.1789 6.49756 16.5367 6.49756C14.8229 6.49756 13.4423 7.22293 12.5141 8.62492C11.7762 7.29519 10.4195 6.49756 8.68179 6.49756C7.27748 6.49756 6.11111 7.05353 5.2303 8.09323V6.78779H1.7551V19.117H5.2303V12.1787C5.2303 10.8249 6.15873 9.90627 7.51542 9.90627C8.77704 9.90627 9.61003 10.8006 9.61003 12.1304V19.117H13.0852V12.1787C13.0852 10.8249 14.0135 9.90627 15.3703 9.90627C16.632 9.90627 17.465 10.8006 17.465 12.1304V15.4907C17.465 17.884 18.7266 19.117 21.1783 19.117H22.1542V15.7083H21.916C21.2975 15.7081 20.9404 15.3454 20.9404 14.717Z" fill="white" />
        <path d="M25.2015 0.888916C23.9875 0.888916 23.0593 1.80758 23.0593 3.04036C23.0593 4.29743 23.9875 5.21609 25.2015 5.21609C26.4393 5.21609 27.3677 4.29743 27.3677 3.04036C27.3675 1.80758 26.4393 0.888916 25.2015 0.888916Z" fill="white" />
        <path d="M26.939 6.78735H23.464V19.1166H26.939V6.78735Z" fill="white" />
    </g>
</svg>
    