<svg width="150" height="150" viewBox="0 0 150 150" fill="none" xmlns="http://www.w3.org/2000/svg">
<g clip-path="url(#clip0_972_2183)">
<path d="M99.9416 127.999V126.578C99.8804 125.254 99.7531 123.934 99.5604 122.623C99.4315 121.624 99.2406 120.634 98.9888 119.658C95.0524 102.418 79.2423 89.5044 60.3205 89.5044C43.3672 89.5044 26.287 100.75 22.6678 116.074C22.1597 118.36 21.7156 127.073 17.1436 123.797C16.3183 123.18 15.8736 122.253 15.1117 121.573C13.461 120.09 11.3022 119.287 9.01652 119.287C4.06388 119.164 0 123.118 0 127.999H99.9416Z" fill="#FA9269"/>
<path d="M99.9414 128H86.8617C86.1786 125.928 85.1483 123.985 83.8141 122.253C82.4806 120.523 80.83 119.04 78.9883 117.805L45.6533 93.7681L98.9892 119.658C99.243 120.647 99.4339 121.636 99.5608 122.624C99.7511 123.921 99.878 125.22 99.9414 126.579V126.702C99.878 127.135 99.9414 127.568 99.9414 128Z" fill="#993F21"/>
<path d="M42.9225 92.4084L71.3049 106.188L99.6873 119.967L118.545 25.3665C118.926 23.4509 116.576 22.2152 115.18 23.575L42.9225 92.4084Z" fill="#FFCF70"/>
<path d="M116.45 35.8099L113.847 40.6288L104.894 36.0567L107.941 30.3716L106.354 31.9164L104.322 35.7476L103.052 35.0677L102.545 35.5619L104.069 36.3034L99.56 44.7691L95.2424 42.5444L94.7349 43.0385L99.2428 45.3866L94.6715 53.9139L87.3056 50.1444L86.7974 50.6386L94.3536 54.5314L89.8457 62.9971L80.956 58.4243L83.3058 54.0996L81.7179 55.6438L80.3845 58.1152L79.5591 57.6828L79.0516 58.1769L80.0673 58.7334L75.5593 67.199L71.6858 65.2211L71.1776 65.7153L75.2415 67.8166L70.6067 76.1575L63.6855 72.6361L63.1774 73.1302L70.2889 76.7757L65.7809 85.2413L56.8278 80.6686L58.4157 77.7023L56.7644 79.2478L56.1928 80.3595L55.8756 80.1127L55.3675 80.6069L55.9391 80.9153L51.4311 89.3809L48.0016 87.6511L47.4941 88.1452L51.1133 89.9991L48.3829 95.1277L49.0179 95.4362L51.7483 90.3699L60.7014 94.942L58.0979 99.8232L58.7322 100.132L61.3358 95.2511L70.2889 99.8232L67.8129 104.458L68.4479 104.767L70.9239 100.132L79.877 104.705L77.5272 109.154L78.1622 109.463L80.512 105.013L89.4644 109.586L87.2422 113.788L87.8772 114.097L90.0994 109.895L99.0525 114.467L96.9571 118.484L97.5922 118.793L99.6875 114.838L100.893 115.456L101.02 114.777L100.005 114.282L101.783 110.945L102.227 108.598L99.3697 113.973L90.4173 109.401L94.9252 100.936L102.925 105.076L103.052 104.396L95.2424 100.38L99.751 91.9141L105.021 94.6329L105.148 93.9537L100.068 91.3582L104.576 82.8926L107.053 84.1907L107.18 83.5108L104.83 82.3368L108.894 74.675L109.338 72.327L109.021 72.9452L100.132 68.3724L104.64 59.9068L111.18 63.2438L111.307 62.5646L104.957 59.2899L109.465 50.8243L113.275 52.7399L113.402 52.06L109.783 50.2061L114.291 41.7411L115.307 42.297L115.434 41.6178L114.545 41.1846L116.069 38.3431L116.45 35.8099ZM90.0994 63.8613L99.0525 68.4334L94.5439 76.8991L85.5915 72.3263L90.0994 63.8613ZM80.7657 81.3478L85.2737 72.8822L94.2267 77.4549L89.7188 85.9205L80.7657 81.3478ZM89.3375 86.5998L84.8296 95.0647L75.8765 90.4926L80.3845 82.027L89.3375 86.5998ZM80.5754 58.9795L89.5278 63.5523L85.0199 72.0179L76.0668 67.4451L80.5754 58.9795ZM75.7496 68.001L84.7021 72.5737L80.1941 81.0393L71.2417 76.4666L75.7496 68.001ZM70.9239 77.0841L79.877 81.6569L75.3684 90.1218L66.4159 85.5491L70.9239 77.0841ZM60.9552 94.2621L52.0021 89.69L56.5107 81.2244L65.4631 85.7972L60.9552 94.2621ZM70.4792 99.2057L61.5267 94.6329L66.0347 86.1679L74.9878 90.7407L70.4792 99.2057ZM80.0038 104.087L71.0507 99.5148L75.5593 91.0491L84.5118 95.6219L80.0038 104.087ZM89.5913 109.03L80.6389 104.396L85.1468 95.931L94.0999 100.503L89.5913 109.03ZM94.417 99.9472L85.4646 95.3745L89.9726 86.9088L98.9256 91.4816L94.417 99.9472ZM99.2428 90.8641L90.2897 86.2913L94.7983 77.8263L103.687 82.3991L99.2428 90.8641ZM108.577 73.3776L104.069 81.8433L95.1789 77.2705L99.6875 68.8049L108.577 73.3776ZM99.3697 67.8783L90.4173 63.3055L94.9252 54.8405L103.878 59.4133L99.3697 67.8783ZM104.195 58.7951L95.2424 54.2223L99.751 45.7574L108.703 50.3301L104.195 58.7951ZM109.021 49.7126L100.068 45.1398L104.576 36.6742L113.529 41.247L109.021 49.7126ZM110.926 27.5911L110.418 28.0859L117.339 31.608L117.466 30.9281L110.926 27.5911Z" fill="white"/>
<path d="M118.228 116.445C111.688 116.445 106.354 121.636 106.354 128H130.038C130.038 121.636 124.768 116.445 118.228 116.445ZM145.403 123.612C142.927 123.612 140.895 125.589 140.895 127.999H149.911C149.911 125.528 147.879 123.612 145.403 123.612Z" fill="#FA9269"/>
</g>
<defs>
<clipPath id="clip0_972_2183">
<rect width="150" height="105" fill="white" transform="translate(0 23)"/>
</clipPath>
</defs>
</svg>
