<svg width="24" height="24" viewBox="0 0 24 24" fill="current" xmlns="http://www.w3.org/2000/svg" size="24" class="css-1qumf7v-MenuLink">
    <path fill-rule="evenodd" clip-rule="evenodd" d="M4 4a2 2 0 0 1 2-2h12a2 2 0 0 1 2 2v16.4a.5.5 0 0 1-.223.415l-1.5 1a.5.5 0 0 1-.554 0l-2.446-1.63a.5.5 0 0 0-.554 0l-2.446 1.63a.5.5 0 0 1-.554 0l-2.446-1.63a.5.5 0 0 0-.554 0l-2.446 1.63a.5.5 0 0 1-.554 0l-1.5-1A.5.5 0 0 1 4 20.4V4Zm4.5 1a1 1 0 0 0 0 2h7a1 1 0 1 0 0-2h-7Zm-1 6a1 1 0 0 1 1-1h7a1 1 0 1 1 0 2h-7a1 1 0 0 1-1-1Zm1 4a1 1 0 1 0 0 2h4a1 1 0 1 0 0-2h-4Z"></path>
</svg>