<svg width="24" height="24" viewBox="0 0 24 24" fill="current" xmlns="http://www.w3.org/2000/svg" size="24" class="css-ql88re-MenuButton">
    <path fill-rule="evenodd" clip-rule="evenodd" d="M2.663 5.819c-.163.32-.163.74-.163 1.581v1.1h19V7.4c0-.84 0-1.26-.163-1.581a1.5 1.5 0 0 0-.656-.656C20.361 5 19.941 5 19.1 5H4.9c-.84 0-1.26 0-1.581.163a1.5 1.5 0 0 0-.656.656ZM21.5 11.5h-19v5.1c0 .84 0 1.26.163 1.581a1.5 1.5 0 0 0 .656.655c.32.164.74.164 1.581.164h14.2c.84 0 1.26 0 1.581-.163a1.5 1.5 0 0 0 .655-.656c.164-.32.164-.74.164-1.581v-5.1Z"></path>
</svg>