<svg width="20" height="20" viewBox="0 0 20 20" fill="current" xmlns="http://www.w3.org/2000/svg">
    <path fill-rule="evenodd" clip-rule="evenodd" d="M10 3C10.3276 3 10.6418 3.13015 10.8735 3.36181C11.1051 3.59347 11.2353 3.90767 11.2353 4.23529V8.76471H15.7647C16.0717 8.7647 16.3676 8.87898 16.5949 9.08526C16.8222 9.29155 16.9646 9.57507 16.9942 9.88059L17 10C17 10.3276 16.8699 10.6418 16.6382 10.8735C16.4065 11.1051 16.0923 11.2353 15.7647 11.2353H11.2353V15.7647C11.2353 16.0717 11.121 16.3676 10.9147 16.5949C10.7084 16.8222 10.4249 16.9646 10.1194 16.9942L10 17C9.67238 17 9.35818 16.8699 9.12652 16.6382C8.89485 16.4065 8.76471 16.0923 8.76471 15.7647V11.2353H4.23529C3.92834 11.2353 3.63239 11.121 3.40509 10.9147C3.17779 10.7084 3.03544 10.4249 3.00576 10.1194L3 10C3 9.67238 3.13015 9.35818 3.36181 9.12652C3.59347 8.89485 3.90767 8.76471 4.23529 8.76471H8.76471V4.23529C8.7647 3.92834 8.87898 3.63239 9.08526 3.40509C9.29155 3.17779 9.57507 3.03544 9.88059 3.00576L10 3Z" fill="current" />
</svg>
    