<svg width="22" height="22" viewBox="0 0 22 22" fill="current" xmlns="http://www.w3.org/2000/svg">
    <path fill-rule="evenodd" clip-rule="evenodd" d="M11.0002 3.20825C11.3648 3.20825 11.7146 3.35312 11.9724 3.61098C12.2303 3.86884 12.3752 4.21858 12.3752 4.58325V9.62492H17.4168C17.7585 9.62491 18.0879 9.75211 18.3409 9.98173C18.5939 10.2113 18.7524 10.5269 18.7854 10.867L18.7918 10.9999C18.7918 11.3646 18.647 11.7143 18.3891 11.9722C18.1312 12.2301 17.7815 12.3749 17.4168 12.3749H12.3752V17.4166C12.3752 17.7583 12.248 18.0877 12.0184 18.3407C11.7887 18.5937 11.4731 18.7521 11.1331 18.7852L11.0002 18.7916C10.6355 18.7916 10.2858 18.6467 10.0279 18.3889C9.77003 18.131 9.62516 17.7813 9.62516 17.4166V12.3749H4.5835C4.24183 12.3749 3.9124 12.2477 3.6594 12.0181C3.40639 11.7885 3.24794 11.4729 3.21491 11.1328L3.2085 10.9999C3.2085 10.6352 3.35336 10.2855 3.61122 10.0276C3.86909 9.76978 4.21882 9.62492 4.5835 9.62492H9.62516V4.58325C9.62516 4.24159 9.75236 3.91216 9.98197 3.65915C10.2116 3.40615 10.5272 3.2477 10.8672 3.21467L11.0002 3.20825Z" fill="current" />
</svg>
    