<svg width="14" height="14" viewBox="0 0 14 14" fill="current" xmlns="http://www.w3.org/2000/svg">
    <g clip-path="url(#clip0_423_1225)">
        <path d="M12.557 4.83224L8.13004 0.512654C7.74562 0.127654 7.19262 -0.0607623 6.65537 0.0162377L2.63737 0.565738C2.31829 0.609488 2.09487 0.903488 2.13862 1.22257C2.18237 1.54165 2.47579 1.76449 2.79604 1.72132L6.81462 1.17182C6.99312 1.14732 7.17745 1.20857 7.31104 1.34215L11.7385 5.66174C12.3481 6.27132 12.4076 7.22507 11.927 7.90582C11.7905 7.6334 11.6219 7.37382 11.3955 7.14749L7.03512 2.82382C6.65129 2.43999 6.10354 2.25507 5.56045 2.3274L1.54187 2.8769C1.27704 2.91307 1.07054 3.12482 1.04137 3.39082L0.595122 7.42515C0.536789 7.95657 0.719955 8.47749 1.09912 8.85607L5.42512 13.1453C5.97579 13.6966 6.70787 13.9993 7.48662 13.9993H7.49654C8.27937 13.997 9.0132 13.689 9.56329 13.1319L11.4107 11.2606C11.9515 10.7128 12.2233 10.0012 12.2408 9.28424L12.5774 8.94824C13.7003 7.81074 13.6939 5.96624 12.5587 4.83165L12.557 4.83224ZM3.50012 5.83324C3.17812 5.83324 2.91679 5.5719 2.91679 5.2499C2.92029 4.4869 4.07996 4.48749 4.08346 5.2499C4.08346 5.5719 3.82212 5.83324 3.50012 5.83324Z" fill="current" />
    </g>
    <defs>
        <clipPath id="clip0_423_1225">
            <rect width="14" height="14" fill="white" />
        </clipPath>
    </defs>
</svg>
    