<svg width="20" height="20" viewBox="0 0 20 20" fill="current" xmlns="http://www.w3.org/2000/svg">
    <path fill-rule="evenodd" clip-rule="evenodd" d="M14.5832 3.33319H11.614C11.5219 2.97505 11.3134 2.65771 11.0211 2.43111C10.7289 2.20452 10.3696 2.08154 9.99984 2.08154C9.63005 2.08154 9.27077 2.20452 8.97855 2.43111C8.68632 2.65771 8.47775 2.97505 8.38567 3.33319H5.4165C5.25235 3.33319 5.08981 3.36552 4.93815 3.42834C4.78649 3.49116 4.64869 3.58323 4.53262 3.6993C4.41655 3.81538 4.32447 3.95318 4.26165 4.10483C4.19884 4.25649 4.1665 4.41903 4.1665 4.58319C4.1665 4.74734 4.19884 4.90988 4.26165 5.06154C4.32447 5.2132 4.41655 5.351 4.53262 5.46707C4.64869 5.58314 4.78649 5.67522 4.93815 5.73804C5.08981 5.80086 5.25235 5.83319 5.4165 5.83319H14.5832C14.9147 5.83319 15.2326 5.70149 15.4671 5.46707C15.7015 5.23265 15.8332 4.91471 15.8332 4.58319C15.8332 4.25167 15.7015 3.93372 15.4671 3.6993C15.2326 3.46488 14.9147 3.33319 14.5832 3.33319V3.33319ZM5.83317 7.49985C5.61216 7.49985 5.4002 7.58765 5.24392 7.74393C5.08763 7.90021 4.99984 8.11217 4.99984 8.33319V16.6665C4.99984 17.1085 5.17543 17.5325 5.48799 17.845C5.80055 18.1576 6.22448 18.3332 6.6665 18.3332H13.3332C13.7752 18.3332 14.1991 18.1576 14.5117 17.845C14.8242 17.5325 14.9998 17.1085 14.9998 16.6665V8.33319C14.9998 8.11217 14.912 7.90021 14.7558 7.74393C14.5995 7.58765 14.3875 7.49985 14.1665 7.49985H5.83317Z" fill="current" />
</svg>
    