<svg width="22" height="22" viewBox="0 0 22 22" fill="current" xmlns="http://www.w3.org/2000/svg">
    <path fill-rule="evenodd" clip-rule="evenodd" d="M16.0418 3.6666H12.7757C12.6745 3.27265 12.445 2.92358 12.1236 2.67432C11.8021 2.42507 11.4069 2.28979 11.0002 2.28979C10.5934 2.28979 10.1982 2.42507 9.87674 2.67432C9.5553 2.92358 9.32587 3.27265 9.22458 3.6666H5.9585C5.77793 3.6666 5.59913 3.70217 5.43231 3.77127C5.26548 3.84037 5.1139 3.94165 4.98622 4.06933C4.85854 4.19701 4.75726 4.34859 4.68816 4.51541C4.61906 4.68224 4.5835 4.86104 4.5835 5.0416C4.5835 5.22217 4.61906 5.40097 4.68816 5.56779C4.75726 5.73462 4.85854 5.8862 4.98622 6.01388C5.1139 6.14156 5.26548 6.24284 5.43231 6.31194C5.59913 6.38104 5.77793 6.4166 5.9585 6.4166H16.0418C16.4065 6.4166 16.7562 6.27174 17.0141 6.01388C17.272 5.75601 17.4168 5.40628 17.4168 5.0416C17.4168 4.67693 17.272 4.32719 17.0141 4.06933C16.7562 3.81147 16.4065 3.6666 16.0418 3.6666V3.6666ZM6.41683 8.24994C6.17371 8.24994 5.94056 8.34651 5.76865 8.51842C5.59674 8.69033 5.50016 8.92349 5.50016 9.1666V18.3333C5.50016 18.8195 5.69332 19.2858 6.03713 19.6296C6.38095 19.9734 6.84727 20.1666 7.3335 20.1666H14.6668C15.1531 20.1666 15.6194 19.9734 15.9632 19.6296C16.307 19.2858 16.5002 18.8195 16.5002 18.3333V9.1666C16.5002 8.92349 16.4036 8.69033 16.2317 8.51842C16.0598 8.34651 15.8266 8.24994 15.5835 8.24994H6.41683Z" fill="current" />
</svg>
    