<svg width="18" height="18" viewBox="0 0 18 18" fill="current" xmlns="http://www.w3.org/2000/svg">
    <path fill-rule="evenodd" clip-rule="evenodd"
        d="M13.125 3.00001H10.4528C10.3699 2.67769 10.1822 2.39208 9.91916 2.18815C9.65616 1.98421 9.33281 1.87354 9 1.87354C8.66719 1.87354 8.34384 1.98421 8.08084 2.18815C7.81784 2.39208 7.63012 2.67769 7.54725 3.00001H4.875C4.72726 3.00001 4.58097 3.02911 4.44448 3.08565C4.30799 3.14219 4.18397 3.22505 4.0795 3.32952C3.97504 3.43399 3.89217 3.558 3.83564 3.6945C3.7791 3.83099 3.75 3.97728 3.75 4.12501C3.75 4.27275 3.7791 4.41904 3.83564 4.55553C3.89217 4.69202 3.97504 4.81604 4.0795 4.92051C4.18397 5.02498 4.30799 5.10784 4.44448 5.16438C4.58097 5.22092 4.72726 5.25002 4.875 5.25002H13.125C13.4234 5.25002 13.7095 5.13149 13.9205 4.92051C14.1315 4.70953 14.25 4.42338 14.25 4.12501C14.25 3.82665 14.1315 3.5405 13.9205 3.32952C13.7095 3.11854 13.4234 3.00001 13.125 3.00001V3.00001ZM5.25 6.75002C5.05109 6.75002 4.86032 6.82903 4.71967 6.96969C4.57902 7.11034 4.5 7.3011 4.5 7.50002V15C4.5 15.3978 4.65804 15.7794 4.93934 16.0607C5.22064 16.342 5.60218 16.5 6 16.5H12C12.3978 16.5 12.7794 16.342 13.0607 16.0607C13.342 15.7794 13.5 15.3978 13.5 15V7.50002C13.5 7.3011 13.421 7.11034 13.2803 6.96969C13.1397 6.82903 12.9489 6.75002 12.75 6.75002H5.25Z"
        fill="#343538" />
</svg>
    